<?xml version="1.0" standalone="no"?>
<!DOCTYPE svg PUBLIC "-//W3C//DTD SVG 20010904//EN"
 "http://www.w3.org/TR/2001/REC-SVG-20010904/DTD/svg10.dtd">
<svg version="1.0" xmlns="http://www.w3.org/2000/svg"
 width="600.000000pt" height="600.000000pt" viewBox="0 0 600.000000 600.000000"
 preserveAspectRatio="xMidYMid meet">

<g transform="translate(0.000000,600.000000) scale(0.100000,-0.100000)"
fill="#000000" stroke="none">
<path d="M1855 3919 c-6 -18 -188 -551 -263 -771 -31 -92 -54 -169 -52 -172 3
-2 92 -6 199 -8 l195 -3 68 190 c38 105 81 222 96 260 l27 70 210 3 c223 3
308 -6 387 -40 44 -19 127 -94 141 -128 7 -16 1 -24 97 111 59 83 122 154 184
208 47 40 46 43 -50 124 -116 99 -219 140 -374 151 -41 3 -252 8 -467 12 -331
6 -393 5 -398 -7z"/>
<path d="M3855 3895 c-88 -15 -261 -72 -339 -112 -250 -126 -417 -301 -631
-663 -229 -387 -293 -473 -400 -545 -103 -68 -142 -75 -429 -75 -139 0 -255 2
-258 5 -3 3 15 69 39 146 24 78 41 144 38 148 -4 3 -91 8 -195 9 l-188 4 -77
-239 c-143 -445 -155 -482 -155 -493 0 -8 145 -10 508 -8 489 4 510 5 587 26
101 28 260 106 345 167 218 160 338 304 515 620 124 220 182 303 279 401 69
69 109 101 165 128 260 131 517 89 642 -104 l32 -50 209 0 210 0 -7 33 c-23
119 -43 183 -82 267 -77 161 -217 277 -393 326 -79 22 -315 27 -415 9z"/>
<path d="M3885 3138 c-3 -7 -29 -85 -59 -173 -30 -88 -58 -168 -61 -177 -7
-17 5 -18 164 -18 129 0 171 -3 171 -12 0 -24 -136 -144 -205 -180 -103 -53
-175 -72 -285 -72 -150 -1 -278 51 -346 141 l-32 42 -38 -57 c-57 -88 -115
-160 -193 -244 l-71 -76 41 -37 c95 -86 240 -157 374 -185 33 -7 105 -13 160
-13 304 0 629 150 895 413 206 203 340 444 340 612 l0 48 -425 0 c-331 0 -427
-3 -430 -12z"/>
</g>
</svg>
